<svg xmlns="http://www.w3.org/2000/svg" viewBox="0 0 216.2293 40.6143"><title>Zeichenfläche 1</title><polygon points="40.31 12.227 36.983 12.227 36.983 8.912 35.266 8.912 35.266 17.378 36.983 17.378 36.983 13.648 40.31 13.648 40.31 17.378 42.027 17.378 42.027 8.912 40.31 8.912 40.31 12.227"/><path d="M49.4844,14.3466a3.1735,3.1735,0,1,0-6.3467,0,3.1735,3.1735,0,1,0,6.3467,0ZM46.311,16.3241c-.9946,0-1.5395-.7929-1.5395-1.9775s.5449-1.9893,1.5395-1.9893c.9824,0,1.5391.8057,1.5391,1.9893S47.2934,16.3241,46.311,16.3241Z"/><path d="M53.2827,17.5556a2.5445,2.5445,0,0,0,2.7354-2.32H54.4673a1.1337,1.1337,0,0,1-1.22,1.0293c-.9829,0-1.4448-.77-1.4448-1.918,0-1.1719.4976-1.918,1.4683-1.918a1.113,1.113,0,0,1,1.1133.9356H55.959A2.5792,2.5792,0,0,0,53.2,11.1376a2.996,2.996,0,0,0-3.0313,3.209A3.0209,3.0209,0,0,0,53.2827,17.5556Z"/><path d="M60.3618,11.1376a1.9369,1.9369,0,0,0-1.7642.959H58.562V8.912h-1.61v8.4659h1.61V13.9325a1.27,1.27,0,0,1,1.2314-1.3974,1.011,1.011,0,0,1,1.0538,1.1133v3.73h1.61V13.4111A2.09,2.09,0,0,0,60.3618,11.1376Z"/><path d="M68.707,15.6015c0-1.4209-1.125-1.7051-2.143-1.918-.8643-.1777-1.67-.2246-1.67-.7461,0-.4375.4146-.6748,1.042-.6748.687,0,1.1016.2373,1.1724.8887h1.4565c-.1181-1.22-1.0063-2.0137-2.605-2.0137-1.3852,0-2.4746.6279-2.4746,1.9424,0,1.3262,1.0655,1.6221,2.1548,1.835.8291.166,1.5987.2255,1.5987.8056,0,.4258-.4024.6983-1.1133.6983a1.1684,1.1684,0,0,1-1.3262-1.0069H63.3076c.0947,1.291,1.0776,2.1436,2.8418,2.1436C67.665,17.5556,68.707,16.8212,68.707,15.6015Z"/><path d="M72.5415,17.5556a2.5443,2.5443,0,0,0,2.7349-2.32H73.7251a1.1332,1.1332,0,0,1-1.2193,1.0293c-.9829,0-1.4448-.77-1.4448-1.918,0-1.1719.4976-1.918,1.4683-1.918a1.1134,1.1134,0,0,1,1.1133.9356h1.5747a2.5788,2.5788,0,0,0-2.7588-2.2266,2.996,2.996,0,0,0-3.0313,3.209A3.021,3.021,0,0,0,72.5415,17.5556Z"/><path d="M80.1055,17.3779h1.61V13.4111A2.09,2.09,0,0,0,79.62,11.1376a1.9374,1.9374,0,0,0-1.7642.959H77.82V8.912H76.21v8.4659h1.61V13.9325a1.27,1.27,0,0,1,1.2314-1.3974,1.011,1.011,0,0,1,1.0538,1.1133Z"/><path d="M85.0054,17.5439a1.9493,1.9493,0,0,0,1.7407-.876h.0356v.71H88.333V11.3036h-1.61v3.5049a1.2268,1.2268,0,0,1-1.22,1.374c-.687,0-1.0063-.3916-1.0063-1.1015V11.3036H82.8979v4.05A1.9825,1.9825,0,0,0,85.0054,17.5439Z"/><rect x="89.6333" y="8.912" width="1.6103" height="8.4659"/><path d="M95.2451,11.1376A3.0059,3.0059,0,0,0,92.25,14.3349a3.0067,3.0067,0,0,0,3.1494,3.2207,2.6067,2.6067,0,0,0,2.7471-1.9893H96.56a1.1343,1.1343,0,0,1-1.1724.7461,1.51,1.51,0,0,1-1.5513-1.5156h4.4048C98.2407,12.63,97.1987,11.1376,95.2451,11.1376ZM93.86,13.6835a1.3528,1.3528,0,0,1,1.4092-1.3027A1.2815,1.2815,0,0,1,96.56,13.6835Z"/><path d="M102.1929,10.7587v.5449h-.8291v1.1133h.8291v4.961h1.61v-4.961h1.0894V11.3036h-1.0894v-.45c0-.6269.3316-.7216,1.0894-.6865V8.9238C103.3413,8.7577,102.1929,9.2792,102.1929,10.7587Z"/><rect x="109.0947" y="9.1484" width="1.5156" height="1.3505"/><rect x="106.4541" y="9.1484" width="1.5156" height="1.3505"/><path d="M109.6157,14.8085a1.2268,1.2268,0,0,1-1.22,1.374c-.6865,0-1.0064-.3916-1.0064-1.1015V11.3036H105.791v4.05a1.9826,1.9826,0,0,0,2.1079,2.1905,1.9476,1.9476,0,0,0,1.74-.876h.0357v.71h1.5513V11.3036h-1.61Z"/><path d="M114.0659,12.2743h-.0352v-.9707h-1.5512v6.0743h1.61v-2.96a1.53,1.53,0,0,1,1.8116-1.7285h.0356V11.28a1.0363,1.0363,0,0,0-.3789-.0479A1.5938,1.5938,0,0,0,114.0659,12.2743Z"/><path d="M122.6133,12.2743c-1.2554-.2724-1.8472-.4736-1.8472-1.16,0-.6035.6035-.9942,1.5273-.9942a1.46,1.46,0,0,1,1.6338,1.2784h1.646c-.13-1.7051-1.3618-2.6407-3.268-2.6407-1.8829,0-3.2442.8643-3.2442,2.5342,0,1.7647,1.3853,2.167,2.9009,2.51,1.29.2969,2.0957.4619,2.0957,1.291,0,.7812-.77,1.09-1.646,1.09-1.2075,0-1.7876-.4033-1.9062-1.4209h-1.6812c.0591,1.7872,1.3618,2.8057,3.6587,2.8057,1.9062,0,3.292-.959,3.292-2.6758C125.7749,13.0683,124.354,12.6532,122.6133,12.2743Z"/><path d="M129.668,16.2646c-.983,0-1.4449-.77-1.4449-1.918,0-1.1719.4976-1.918,1.4683-1.918a1.1134,1.1134,0,0,1,1.1133.9356h1.5747a2.5788,2.5788,0,0,0-2.7588-2.2266,2.996,2.996,0,0,0-3.0313,3.209,3.021,3.021,0,0,0,3.1143,3.209,2.5443,2.5443,0,0,0,2.7349-2.32h-1.5513A1.1332,1.1332,0,0,1,129.668,16.2646Z"/><path d="M136.7588,11.1376a1.9369,1.9369,0,0,0-1.7642.959h-.0356V8.912h-1.61v8.4659h1.61V13.9325a1.2693,1.2693,0,0,1,1.2314-1.3974,1.011,1.011,0,0,1,1.0537,1.1133v3.73h1.61V13.4111A2.09,2.09,0,0,0,136.7588,11.1376Z"/><path d="M145.2226,13.3876c0-1.4209-.7343-2.2383-2.5576-2.2383-1.7763,0-2.5693.9356-2.6172,2.002h1.4336c.0469-.5811.4141-.8525,1.1719-.8525.6748,0,1.0186.2841,1.0186.7216,0,.4619-.462.545-1.4688.6866-1.35.1894-2.4394.6162-2.4394,1.9541,0,1.208.8769,1.8593,2.12,1.8593a1.8632,1.8632,0,0,0,1.7881-.8174h.0234a1.6391,1.6391,0,0,0,.1895.6749h1.5507v-.0586c-.1416-.1075-.2129-.3789-.2129-.8409Zm-1.5156,1.8477c0,.5918-.5088,1.16-1.4326,1.16-.5684,0-.9473-.2011-.9473-.7695s.4141-.7578,1.2549-.9473a4.4833,4.4833,0,0,0,1.125-.3554Z"/><path d="M150.2275,14.8085a1.2261,1.2261,0,0,1-1.2187,1.374c-.6875,0-1.0069-.3916-1.0069-1.1015V11.3036h-1.5986v4.05a1.9825,1.9825,0,0,0,2.1074,2.1905,1.9505,1.9505,0,0,0,1.7412-.876h.0352v.71h1.5508V11.3036h-1.61Z"/><path d="M156.0166,13.6835c-.8643-.1777-1.67-.2246-1.67-.7461,0-.4375.415-.6748,1.042-.6748.6865,0,1.1015.2373,1.1728.8887h1.4561c-.1182-1.22-1.0069-2.0137-2.6045-2.0137-1.3858,0-2.4756.6279-2.4756,1.9424,0,1.3262,1.0664,1.6221,2.1553,1.835.8291.166,1.5986.2255,1.5986.8056,0,.4258-.4024.6983-1.1133.6983a1.1684,1.1684,0,0,1-1.3262-1.0069h-1.4912c.0938,1.291,1.0772,2.1436,2.8418,2.1436,1.5157,0,2.5567-.7344,2.5567-1.9541C158.1592,14.1806,157.0351,13.8964,156.0166,13.6835Z"/><path d="M162.5156,11.1376a2.122,2.122,0,0,0-1.7881.9238h-.0351v-.7578h-1.5508v8.0635h1.6094V16.6913h.0244a1.9552,1.9552,0,0,0,1.7519.8643c1.5635,0,2.6289-1.2432,2.6289-3.209C165.1562,12.4521,164.126,11.1376,162.5156,11.1376Zm-.331,5.08c-.959,0-1.4688-.7227-1.4688-1.8232,0-1.09.4024-1.9541,1.4092-1.9541.9951,0,1.3974.8056,1.3974,1.9541S163.001,16.2177,162.1846,16.2177Z"/><rect x="166.1592" y="8.912" width="1.6113" height="1.4444"/><rect x="166.1592" y="11.3036" width="1.6113" height="6.0743"/><path d="M171.7715,11.1376a3.006,3.006,0,0,0-2.9961,3.1973,3.007,3.007,0,0,0,3.15,3.2207,2.6077,2.6077,0,0,0,2.747-1.9893h-1.5869a1.1344,1.1344,0,0,1-1.1728.7461,1.51,1.51,0,0,1-1.5508-1.5156h4.4053C174.7676,12.63,173.7256,11.1376,171.7715,11.1376Zm-1.3858,2.5459a1.3531,1.3531,0,0,1,1.4092-1.3027,1.2818,1.2818,0,0,1,1.291,1.3027Z"/><rect x="175.7959" y="8.912" width="1.6103" height="8.4659"/><polygon points="184.392 11.304 182.461 11.304 180.306 13.6 180.306 8.912 178.708 8.912 178.708 17.378 180.306 17.378 180.306 15.33 181.005 14.607 182.71 17.378 184.663 17.378 182.153 13.612 184.392 11.304"/><path d="M189.0058,14.8085a1.2268,1.2268,0,0,1-1.22,1.374c-.6865,0-1.0058-.3916-1.0058-1.1015V11.3036h-1.5987v4.05a1.9825,1.9825,0,0,0,2.1074,2.1905,1.9508,1.9508,0,0,0,1.7413-.876h.0351v.71h1.5508V11.3036h-1.61Z"/><path d="M195.3271,11.1376a1.9726,1.9726,0,0,0-1.7988.9951h-.0361v-.8291H191.917v6.0743h1.6113V13.9325a1.2691,1.2691,0,0,1,1.2305-1.3974,1.0112,1.0112,0,0,1,1.0547,1.1133v3.73h1.61V13.4111A2.09,2.09,0,0,0,195.3271,11.1376Z"/><path d="M201.5547,13.6835c-.8643-.1777-1.67-.2246-1.67-.7461,0-.4375.415-.6748,1.0419-.6748.6875,0,1.1016.2373,1.1729.8887h1.4561c-.1182-1.22-1.0069-2.0137-2.6055-2.0137-1.3848,0-2.4746.6279-2.4746,1.9424,0,1.3262,1.0664,1.6221,2.1552,1.835.8291.166,1.5987.2255,1.5987.8056,0,.4258-.4024.6983-1.1133.6983A1.1684,1.1684,0,0,1,199.79,15.412h-1.4922c.0957,1.291,1.0782,2.1436,2.8418,2.1436,1.5157,0,2.5586-.7344,2.5586-1.9541C203.6982,14.1806,202.5732,13.8964,201.5547,13.6835Z"/><path d="M207.1777,16.1943a.5336.5336,0,0,1-.6045-.6045V12.3691h1.042V11.3036h-1.042V9.4091H204.999v1.8945h-.8408v1.0655h.8408v3.5644c0,1.1485.8643,1.4561,1.6455,1.4561.64,0,1.0069-.0235,1.0069-.0235V16.1825S207.3789,16.1943,207.1777,16.1943Z"/><polygon points="36.983 25.497 40.938 25.497 40.938 24.088 36.983 24.088 36.983 22.193 41.494 22.193 41.494 20.749 35.266 20.749 35.266 29.215 41.53 29.215 41.53 27.782 36.983 27.782 36.983 25.497"/><path d="M44.1919,24.1113h-.0357v-.9708H42.605v6.0743h1.61v-2.96a1.5307,1.5307,0,0,1,1.8115-1.7295h.0357V23.1171a1.0367,1.0367,0,0,0-.3789-.0478A1.5926,1.5926,0,0,0,44.1919,24.1113Z"/><path d="M50.312,22.9745a1.9735,1.9735,0,0,0-1.8.9952h-.0357v-.8292H46.9018v6.0743h1.61V25.77a1.27,1.27,0,0,1,1.2314-1.3975,1.011,1.011,0,0,1,1.0537,1.1133v3.73h1.61V25.248A2.09,2.09,0,0,0,50.312,22.9745Z"/><path d="M56.42,25.52c-.8647-.1777-1.6694-.2246-1.6694-.7461,0-.4384.414-.6748,1.042-.6748.6865,0,1.101.2364,1.1718.8877h1.4566c-.1187-1.22-1.0064-2.0127-2.605-2.0127-1.3852,0-2.4746.628-2.4746,1.9424,0,1.3262,1.0654,1.6221,2.1548,1.835.8291.166,1.5986.2246,1.5986.8047,0,.4267-.4028.6992-1.1128.6992a1.1679,1.1679,0,0,1-1.3262-1.0069H53.1636c.0947,1.2911,1.0776,2.1436,2.8418,2.1436,1.5156,0,2.5576-.7344,2.5576-1.9541C58.563,26.0175,57.438,25.7333,56.42,25.52Z"/><path d="M61.3677,27.4267V24.206H62.41V23.1405h-1.042V21.246H59.793v1.8945h-.84V24.206h.84V27.77c0,1.1485.8647,1.4561,1.646,1.4561.64,0,1.0063-.0235,1.0063-.0235V28.0185s-.272.0127-.4736.0127A.5334.5334,0,0,1,61.3677,27.4267Z"/><path d="M71.063,24.68v-.0351a1.7438,1.7438,0,0,0,1.3261-1.6934,1.9952,1.9952,0,0,0-.6748-1.5869,3.0431,3.0431,0,0,0-2.0483-.6153H65.8769v8.4659h3.8838a3.2139,3.2139,0,0,0,2.1314-.6748,2.1436,2.1436,0,0,0,.7461-1.7647A2.12,2.12,0,0,0,71.063,24.68Zm-3.4693-2.5342h1.8946c.7578,0,1.22.3672,1.22.9951,0,.6631-.5093,1.0186-1.2554,1.0186H67.5937Zm1.9776,5.6485H67.5937V25.4257h1.93a1.2131,1.2131,0,0,1,1.3735,1.22C70.8974,27.332,70.4,27.7939,69.5713,27.7939Z"/><path d="M77.4311,26.6454a1.2266,1.2266,0,0,1-1.22,1.3731c-.6865,0-1.0063-.3906-1.0063-1.1006V23.1405H73.6064v4.05a1.9826,1.9826,0,0,0,2.1079,2.19,1.9484,1.9484,0,0,0,1.74-.877H77.49v.711h1.5513V23.1405h-1.61Z"/><path d="M83.1011,25.52c-.8643-.1777-1.67-.2246-1.67-.7461,0-.4384.4146-.6748,1.042-.6748.687,0,1.1016.2364,1.1724.8877H85.102c-.1181-1.22-1.0063-2.0127-2.6049-2.0127-1.3853,0-2.4747.628-2.4747,1.9424,0,1.3262,1.0655,1.6221,2.1548,1.835.8291.166,1.5987.2246,1.5987.8047,0,.4267-.4024.6992-1.1133.6992a1.1684,1.1684,0,0,1-1.3262-1.0069H79.8447c.0947,1.2911,1.0776,2.1436,2.8418,2.1436,1.5156,0,2.5576-.7344,2.5576-1.9541C85.2441,26.0175,84.1191,25.7333,83.1011,25.52Z"/><path d="M88.9487,28.1015c-.9829,0-1.4448-.77-1.4448-1.918,0-1.1719.4976-1.918,1.4683-1.918a1.1129,1.1129,0,0,1,1.1132.9356H91.66a2.579,2.579,0,0,0-2.7587-2.2266,2.996,2.996,0,0,0-3.0313,3.209,3.0209,3.0209,0,0,0,3.1138,3.209,2.5444,2.5444,0,0,0,2.7353-2.3213H90.1684A1.1336,1.1336,0,0,1,88.9487,28.1015Z"/><path d="M95.9682,22.9745a1.9367,1.9367,0,0,0-1.7641.959h-.0357V20.7489h-1.61v8.4659h1.61V25.77A1.27,1.27,0,0,1,95.4,24.372a1.011,1.011,0,0,1,1.0537,1.1133v3.73h1.61V25.248A2.09,2.09,0,0,0,95.9682,22.9745Z"/><circle cx="13.2556" cy="16.7844" r="2.4157"/><polygon points="23.959 19.032 26.938 15.113 20.979 15.113 23.959 19.032"/><path d="M18.5735,8.5034A10.6213,10.6213,0,1,0,29.1947,19.1247,10.6213,10.6213,0,0,0,18.5735,8.5034Zm6.6537,18.3079a4.191,4.191,0,0,0-3.6911-2.2145H21.212l-5.14.0009-.4008,0a2.5319,2.5319,0,0,1-2.29-1.4751l-1.43.97a4.19,4.19,0,0,0,3.72,2.27h.4008l5.14-.001.3241,0a2.5315,2.5315,0,0,1,2.2857,1.4664,10.1875,10.1875,0,0,1-5.2472,1.4309,10.1319,10.1319,0,0,1-.96-20.2179V21.2485h1.9179V9.0408a10.1653,10.1653,0,0,1,5.695,17.7705Z"/></svg>