<?xml version="1.0" encoding="UTF-8" standalone="no"?>
<!DOCTYPE svg PUBLIC "-//W3C//DTD SVG 1.1//EN" "http://www.w3.org/Graphics/SVG/1.1/DTD/svg11.dtd">
<svg width="100%" height="100%" viewBox="0 0 439 162" version="1.1" xmlns="http://www.w3.org/2000/svg" xmlns:xlink="http://www.w3.org/1999/xlink" xml:space="preserve" xmlns:serif="http://www.serif.com/" style="fill-rule:evenodd;clip-rule:evenodd;stroke-linejoin:round;stroke-miterlimit:2;">
    <g id="Black">
        <g transform="matrix(-0.984708,0.174215,0.174215,0.984708,27.6177,-327.587)">
            <rect x="87.362" y="394.079" width="8.409" height="66.57"/>
        </g>
        <g transform="matrix(-0.984708,0.174215,0.174215,0.984708,263.352,-471.055)">
            <rect x="216.048" y="444.182" width="8.161" height="66.569"/>
        </g>
        <g transform="matrix(-0.984708,0.174215,0.174215,0.984708,125.769,-511.471)">
            <rect x="151.88" y="501.642" width="8.059" height="15.416"/>
        </g>
        <g transform="matrix(-0.984708,0.174215,0.174215,0.984708,133.583,-467.309)">
            <rect x="151.88" y="479.218" width="8.059" height="15.416"/>
        </g>
        <g transform="matrix(-0.984708,0.174215,0.174215,0.984708,141.395,-423.148)">
            <rect x="151.88" y="456.795" width="8.059" height="15.416"/>
        </g>
        <g transform="matrix(-0.984708,0.174215,0.174215,0.984708,149.208,-378.988)">
            <rect x="151.88" y="434.372" width="8.059" height="15.416"/>
        </g>
        <g transform="matrix(-0.984708,0.174215,0.174215,0.984708,157.021,-334.826)">
            <rect x="151.88" y="411.948" width="8.059" height="15.416"/>
        </g>
        <g transform="matrix(-0.984708,0.174215,0.174215,0.984708,164.834,-290.666)">
            <rect x="151.88" y="389.525" width="8.059" height="15.416"/>
        </g>
        <g transform="matrix(-0.984708,0.174215,0.174215,0.984708,172.647,-246.506)">
            <rect x="151.88" y="367.102" width="8.059" height="15.416"/>
        </g>
        <g transform="matrix(-0.174215,-0.984708,-0.984708,0.174215,104.829,58.9513)">
            <path d="M-7.358,-7.357C-11.421,-7.357 -14.715,-4.063 -14.715,0C-14.715,4.064 -11.421,7.358 -7.358,7.358C-3.295,7.358 -0,4.064 -0,0C-0,-4.063 -3.295,-7.357 -7.358,-7.357" style="fill:rgb(225,0,15);fill-rule:nonzero;"/>
        </g>
        <g id="Labor-f체r-Digitalit채t" serif:id="Labor f체r Digitalit채t" transform="matrix(1,0,0,1,-87.362,-324.832)">
            <path d="M274.025,369.101L301.591,369.101L301.591,365.286L278.147,365.286L278.147,325.106L274.025,325.106L274.025,369.101Z" style="fill-rule:nonzero;"/>
            <path d="M314.574,369.839C320.666,369.839 323.927,366.886 325.711,364.363L325.896,364.363L325.896,365.04C326.08,368.116 327.803,369.532 330.572,369.532C331.803,369.532 332.603,369.285 333.156,369.039L333.156,366.27L332.972,366.27C332.418,366.394 331.987,366.517 331.557,366.517C330.203,366.455 329.465,365.655 329.465,363.748L329.465,346.457C329.465,339.504 325.157,336.612 318.204,336.612C310.021,336.612 305.96,340.612 305.529,346.765L309.282,346.765C309.59,342.027 312.543,339.689 318.204,339.689C323.127,339.689 325.834,341.781 325.834,346.088L325.834,346.703C325.834,349.903 323.558,350.272 317.281,351.011C310.082,351.872 304.175,353.41 304.175,360.979C304.175,366.886 308.667,369.839 314.574,369.839ZM315.251,366.763C311.497,366.763 308.175,365.409 308.175,360.979C308.175,355.502 312.297,354.702 317.651,353.964C320.727,353.533 323.865,352.98 325.896,351.872L325.896,357.594C325.896,361.963 322.204,366.763 315.251,366.763Z" style="fill-rule:nonzero;"/>
            <path d="M351.123,369.962C359.492,369.962 364.476,363.071 364.476,353.287C364.476,342.704 358.999,336.612 351.37,336.612C346.324,336.612 342.817,339.073 340.602,342.765L340.479,342.765L340.479,325.106L336.664,325.106L336.664,369.101L340.479,369.101L340.479,364.301L340.602,364.301C343.063,368.055 346.263,369.962 351.123,369.962ZM350.939,366.763C343.863,366.763 340.171,361.286 340.171,353.349C340.171,345.78 343.863,339.812 350.877,339.812C357.215,339.812 360.599,345.411 360.599,353.349C360.599,360.794 357.461,366.763 350.939,366.763Z" style="fill-rule:nonzero;"/>
            <path d="M382.381,366.701C375.244,366.701 371.552,360.671 371.552,353.226C371.552,345.78 375.244,339.75 382.381,339.75C389.457,339.75 393.149,345.78 393.149,353.226C393.149,360.671 389.457,366.701 382.381,366.701ZM382.381,369.901C391.549,369.901 397.026,362.702 397.026,353.226C397.026,343.75 391.549,336.551 382.381,336.551C373.213,336.551 367.614,343.75 367.614,353.226C367.614,362.702 373.213,369.901 382.381,369.901Z" style="fill-rule:nonzero;"/>
            <path d="M401.825,369.101L405.64,369.101L405.64,351.011C405.64,347.257 407.301,344.304 409.763,342.458C411.732,341.042 414.254,340.55 416.531,340.919L416.531,337.166C416.285,337.104 415.977,337.043 415.485,337.043C411.055,337.043 407.732,339.504 405.763,343.196L405.64,343.196L405.64,337.289L401.825,337.289L401.825,369.101Z" style="fill-rule:nonzero;"/>
            <path d="M275.686,422.264L279.44,422.264L279.44,393.591L285.347,393.591L285.347,390.452L279.44,390.452L279.44,384.915C279.44,382.515 280.424,381.284 283.624,381.284L285.285,381.284L285.285,378.023C285.039,378.023 283.562,377.961 283.132,377.961C278.271,377.961 275.686,380.054 275.686,384.792L275.686,390.452L271.071,390.452L271.071,393.591L275.686,393.591L275.686,422.264Z" style="fill-rule:nonzero;"/>
            <path d="M295.315,383.684L299.007,383.684L299.007,378.392L295.315,378.392L295.315,383.684ZM304.914,383.684L308.605,383.684L308.605,378.392L304.914,378.392L304.914,383.684ZM300.053,423.003C305.098,423.003 307.806,420.665 310.021,417.588L310.144,417.588L310.144,422.264L313.897,422.264L313.897,390.452L310.144,390.452L310.144,410.327C310.144,415.742 306.329,419.803 300.914,419.803C296.299,419.803 293.407,417.465 293.407,412.665L293.407,390.452L289.592,390.452L289.592,412.912C289.592,419.311 293.899,423.003 300.053,423.003Z" style="fill-rule:nonzero;"/>
            <path d="M320.296,422.264L324.111,422.264L324.111,404.174C324.111,400.421 325.773,397.467 328.234,395.621C330.203,394.206 332.726,393.714 335.002,394.083L335.002,390.329C334.756,390.268 334.449,390.206 333.956,390.206C329.526,390.206 326.203,392.668 324.234,396.359L324.111,396.359L324.111,390.452L320.296,390.452L320.296,422.264Z" style="fill-rule:nonzero;"/>
            <path d="M273.471,475.428L289.9,475.428C295.438,475.428 299.683,473.89 302.945,471.182C307.559,467.306 309.959,461.029 309.959,453.892C309.959,440.909 302.391,431.433 290.638,431.433L273.471,431.433L273.471,475.428ZM282.393,467.736L282.393,439.063L289.531,439.063C297.099,439.063 300.914,445.154 300.914,453.892C300.914,462.629 297.653,467.736 289.285,467.736L282.393,467.736Z" style="fill-rule:nonzero;"/>
            <path d="M314.143,475.428L322.511,475.428L322.511,443.862L314.143,443.862L314.143,475.428ZM314.143,438.939L322.511,438.939L322.511,431.433L314.143,431.433L314.143,438.939Z" style="fill-rule:nonzero;"/>
            <path d="M341.831,486.196C346.507,486.196 350.568,485.088 353.214,482.627C355.553,480.473 356.968,477.458 356.968,473.028L356.968,443.862L348.907,443.862L348.907,447.185L348.784,447.185C346.877,444.539 343.985,443.001 340.047,443.001C332.048,443.001 326.387,449.031 326.387,458.445C326.387,467.983 333.278,473.52 340.293,473.52C344.292,473.52 346.692,471.921 348.538,469.828L348.723,469.828L348.723,473.274C348.723,477.581 346.446,479.858 341.708,479.858C337.832,479.858 336.047,478.32 335.37,476.351L327.064,476.351C327.925,482.504 333.217,486.196 341.831,486.196ZM341.708,466.813C337.401,466.813 334.57,463.675 334.57,458.322C334.57,453.03 337.401,449.708 341.646,449.708C346.692,449.708 349.153,453.646 349.153,458.26C349.153,462.937 347,466.813 341.708,466.813Z" style="fill-rule:nonzero;"/>
            <path d="M362.382,475.428L370.75,475.428L370.75,443.862L362.382,443.862L362.382,475.428ZM362.382,438.939L370.75,438.939L370.75,431.433L362.382,431.433L362.382,438.939Z" style="fill-rule:nonzero;"/>
            <path d="M374.318,449.4L378.687,449.4L378.687,467.921C378.687,473.89 383.179,475.489 387.24,475.489C390.563,475.489 392.47,475.366 392.47,475.366L392.47,469.213C392.47,469.213 391.055,469.275 390.009,469.275C388.163,469.275 386.871,468.475 386.871,466.137L386.871,449.4L392.285,449.4L392.285,443.862L386.871,443.862L386.871,434.017L378.687,434.017L378.687,443.862L374.318,443.862L374.318,449.4Z" style="fill-rule:nonzero;"/>
            <path d="M416.774,475.428L424.835,475.428L424.835,475.12C424.096,474.566 423.727,473.151 423.727,470.751L423.727,454.692C423.727,447.308 419.912,443.062 410.436,443.062C401.207,443.062 397.084,447.923 396.838,453.461L404.283,453.461C404.529,450.446 406.437,449.031 410.375,449.031C413.882,449.031 415.667,450.507 415.667,452.784C415.667,455.184 413.267,455.615 408.037,456.353C401.022,457.338 395.361,459.553 395.361,466.506C395.361,472.782 399.915,476.166 406.375,476.166C411.79,476.166 414.067,474.32 415.667,471.921L415.79,471.921C415.974,473.336 416.282,474.813 416.774,475.428ZM408.406,470.321C405.452,470.321 403.483,469.275 403.483,466.321C403.483,463.368 405.637,462.383 410.006,461.399C412.098,460.906 414.374,460.414 415.851,459.553L415.851,464.291C415.851,467.367 413.205,470.321 408.406,470.321Z" style="fill-rule:nonzero;"/>
            <rect x="429.141" y="431.433" width="8.368" height="43.995"/>
            <path d="M443.047,475.428L451.415,475.428L451.415,443.862L443.047,443.862L443.047,475.428ZM443.047,438.939L451.415,438.939L451.415,431.433L443.047,431.433L443.047,438.939Z" style="fill-rule:nonzero;"/>
            <path d="M454.983,449.4L459.352,449.4L459.352,467.921C459.352,473.89 463.844,475.489 467.905,475.489C471.227,475.489 473.135,475.366 473.135,475.366L473.135,469.213C473.135,469.213 471.72,469.275 470.674,469.275C468.828,469.275 467.536,468.475 467.536,466.137L467.536,449.4L472.95,449.4L472.95,443.862L467.536,443.862L467.536,434.017L459.352,434.017L459.352,443.862L454.983,443.862L454.983,449.4Z" style="fill-rule:nonzero;"/>
            <path d="M497.439,475.428L505.5,475.428L505.5,475.12C504.761,474.566 504.392,473.151 504.392,470.751L504.392,454.692C504.392,447.308 500.577,443.062 491.101,443.062C481.872,443.062 477.749,447.923 477.503,453.461L484.948,453.461C485.194,450.446 487.102,449.031 491.04,449.031C494.547,449.031 496.332,450.507 496.332,452.784C496.332,455.184 493.932,455.615 488.702,456.353C481.687,457.338 476.026,459.553 476.026,466.506C476.026,472.782 480.58,476.166 487.04,476.166C492.455,476.166 494.732,474.32 496.332,471.921L496.455,471.921C496.639,473.336 496.947,474.813 497.439,475.428ZM489.071,470.321C486.117,470.321 484.148,469.275 484.148,466.321C484.148,463.368 486.302,462.383 490.671,461.399C492.763,460.906 495.039,460.414 496.516,459.553L496.516,464.291C496.516,467.367 493.87,470.321 489.071,470.321ZM494.116,439.678L501.992,439.678L501.992,432.663L494.116,432.663L494.116,439.678ZM480.395,439.678L488.271,439.678L488.271,432.663L480.395,432.663L480.395,439.678Z" style="fill-rule:nonzero;"/>
            <path d="M507.222,449.4L511.591,449.4L511.591,467.921C511.591,473.89 516.082,475.489 520.144,475.489C523.466,475.489 525.374,475.366 525.374,475.366L525.374,469.213C525.374,469.213 523.958,469.275 522.912,469.275C521.067,469.275 519.774,468.475 519.774,466.137L519.774,449.4L525.189,449.4L525.189,443.862L519.774,443.862L519.774,434.017L511.591,434.017L511.591,443.862L507.222,443.862L507.222,449.4Z" style="fill-rule:nonzero;"/>
        </g>
    </g>
</svg>
